#!OML:ASF I:\Actors\actors\Patient Classification 1\Patient 1\Session 1\Subject1.ASF
:FULLY-SPECIFIED
:DEGREES
756
root -0.327562 17.5765 7.95467 5.04003 -7.30019 -7.26371
lowerback -2.11511 2.91468 5.73228
upperback -9.98844 4.25439 2.22415
thorax -9.15793 1.73471 -1.06239
lowerneck -5.39193 -0.988154 3.80301
upperneck 23.3355 -3.06833 5.06
head 8.15026 -0.654717 0.779335
rclavicle -1.31695e-015 8.64713e-015
rhumerus 25.8901 46.7537 -44.4862
rradius 96.9301
rwrist -13.9293
rhand 4.98301 -46.1503
rfingers 7.12502
rthumb 30.3538 -793.673
lclavicle -1.31695e-015 8.64713e-015
lhumerus -33.3653 -45.5986 91.8775
lradius 100.599
lwrist 46.0314
lhand -45.0176 -1.44711
lfingers 7.12502
lthumb -17.8006 27.7582
rfemur 1.03001 25.9824 23.1472
rtibia 1.37687
rfoot -12.0491 -18.46
rtoes -4.71456
lfemur 11.0607 -37.7018 -18.2016
ltibia -3.84839
lfoot -18.7175 49.5998
ltoes 9.82133
757
root -0.331499 17.5814 7.95524 5.15551 -6.9403 -7.22978
lowerback -2.07123 2.74806 5.64642
upperback -10.0898 4.03825 2.21973
thorax -9.31447 1.62944 -1.01356
lowerneck -5.51956 -0.961793 3.9957
upperneck 23.1957 -3.04052 4.98092
head 8.12349 -0.635457 0.721333
rclavicle 4.88265e-015 6.90777e-015
rhumerus 27.1387 47.0971 -42.9117
rradius 100.016
rwrist -13.597
rhand 5.67401 -43.7718
rfingers 7.12502
rthumb 31.0126 -791.171
lclavicle 4.88265e-015 6.90777e-015
lhumerus -33.416 -45.3322 91.8489
lradius 100.531
lwrist 46.148
lhand -45.0381 -1.33048
lfingers 7.12502
lthumb -17.8203 27.873
rfemur 1.02341 26.1509 23.1297
rtibia 1.26673
rfoot -12.1533 -18.9471
rtoes -4.41843
lfemur 10.7327 -37.7944 -17.9824
ltibia -3.82929
lfoot -18.3174 49.3949
ltoes 9.36459
758
root -0.334767 17.5837 7.95621 5.19606 -6.65995 -7.24069
lowerback -2.01363 2.66183 5.61283
upperback -10.1507 3.92888 2.19533
thorax -9.42326 1.57351 -1.01934
lowerneck -5.73805 -1.00587 4.07949
upperneck 23.1336 -3.13822 5.03765
head 8.14428 -0.668012 0.716062
rclavicle -1.86982e-014 1.13804e-014
rhumerus 28.2004 48.0656 -41.0177
rradius 102.988
rwrist -13.2931
rhand 9.06847 -41.3738
rfingers 7.12502
rthumb 34.2423 -788.103
lclavicle -1.86982e-014 1.13804e-014
lhumerus -33.1938 -45.2135 91.7498
lradius 100.369
lwrist 46.3087
lhand -45.1936 -1.77031
lfingers 7.12502
lthumb -17.9699 27.4195
rfemur 1.01492 26.2081 23.1783
rtibia 1.30722
rfoot -12.3099 -19.2313
rtoes -4.23566
lfemur 10.6462 -38.0598 -17.901
ltibia -3.87705
lfoot -18.0824 49.4454
ltoes 9.12645
759
root -0.338126 17.5831 7.95751 5.14083 -6.46518 -7.29176
lowerback -1.96194 2.65085 5.63634
upperback -10.1395 3.91615 2.15027
thorax -9.43722 1.56297 -1.08182
lowerneck -6.05701 -1.11471 4.20825
upperneck 23.1241 -3.3296 5.03013
head 8.20035 -0.743576 0.673051
rclavicle 2.23136e-014 -4.1546e-014
rhumerus 29.2573 50.1907 -38.4517
rradius 105.598
rwrist -14.9354
rhand 10.4516 -38.2709
rfingers 7.12502
rthumb 35.5545 -784.696
lclavicle 2.23136e-014 -4.1546e-014
lhumerus -32.7836 -45.2423 91.5568
lradius 100.273
lwrist 46.339
lhand -45.3222 -2.06085
lfingers 7.12502
lthumb -18.0937 27.1176
rfemur 1.06843 26.0843 23.291
rtibia 1.38799
rfoot -12.3707 -19.2702
rtoes -4.38898
lfemur 10.7925 -38.3804 -17.9446
ltibia -3.9635
lfoot -17.7651 49.6747
ltoes 8.58785
760
root -0.342932 17.5813 7.95892 5.02819 -6.29171 -7.39846
lowerback -1.91411 2.63644 5.67138
upperback -10.0812 3.89841 2.13698
thorax -9.39773 1.55274 -1.11571
lowerneck -6.43509 -1.20754 3.96342
upperneck 23.0098 -3.49411 5.26172
head 8.23964 -0.818103 0.77358
rclavicle 7.90169e-015 2.06736e-014
rhumerus 30.3482 52.9975 -35.5806
rradius 107.811
rwrist -15.8268
rhand 12.9446 -35.7956
rfingers 7.12502
rthumb 37.9135 -781.618
lclavicle 7.90169e-015 2.06736e-014
lhumerus -32.2677 -45.2324 91.2728
lradius 100.253
lwrist 46.1235
lhand -45.3582 -2.0321
lfingers 7.12502
lthumb -18.1283 27.1431
rfemur 1.18847 25.9241 23.4961
rtibia 1.4653
rfoot -12.4183 -19.2408
rtoes -4.36445
lfemur 10.9479 -38.4123 -17.8807
ltibia -4.02722
lfoot -17.1831 49.6668
ltoes 7.66728
